# This file uses centimeters as units for non-parametric coordinates.

mtllib floor plane.mtl
g default
v -11.887332 -0.000000 12.008768
v 11.899163 -0.000000 12.008768
v -11.887332 0.000000 -12.021011
v 11.899163 0.000000 -12.021011
vt 0.000000 0.000000
vt 0.989876 0.000000
vt 0.000000 1.000000
vt 0.989876 1.000000
vn 0.000000 1.000000 0.000000
vn 0.000000 1.000000 0.000000
vn 0.000000 1.000000 0.000000
vn 0.000000 1.000000 0.000000
s 1
g pPlane1
usemtl initialShadingGroup
f 1/1/1 2/2/2 3/3/3
f 3/3/3 2/2/2 4/4/4
